<svg width="1320" height="518" viewBox="0 0 1320 518" fill="none" xmlns="http://www.w3.org/2000/svg">
<mask id="mask0_1_35" style="mask-type:luminance" maskUnits="userSpaceOnUse" x="0" y="0" width="1320" height="518">
<path d="M1320 0H0V518H1320V0Z" fill="white"/>
<path fill-rule="evenodd" clip-rule="evenodd" d="M948 30.5C948 14.2076 934.792 1 918.5 1H31C14.4315 1 1 14.4315 1 31V60V62V456V457V516C1 516.552 1.44772 517 2 517H918C934.569 517 948 503.569 948 487C948 470.431 961.431 457 978 457H1289C1305.57 457 1319 443.569 1319 427V90C1319 73.4315 1305.57 60 1289 60H977.5C961.208 60 948 46.7924 948 30.5Z" fill="white"/>
</mask>
<g mask="url(#mask0_1_35)">
<path d="M31 1.5H918.5V0.5H31V1.5ZM1.5 60V31H0.5V60H1.5ZM1.5 62V60H0.5V62H1.5ZM1.5 456V62H0.5V456H1.5ZM1.5 457V456H0.5V457H1.5ZM1.5 516V457H0.5V516H1.5ZM918 516.5H2V517.5H918V516.5ZM1289 456.5H978V457.5H1289V456.5ZM1318.5 90V427H1319.5V90H1318.5ZM977.5 60.5H1289V59.5H977.5V60.5ZM1289 457.5C1305.84 457.5 1319.5 443.845 1319.5 427H1318.5C1318.5 443.292 1305.29 456.5 1289 456.5V457.5ZM948.5 487C948.5 470.708 961.708 457.5 978 457.5V456.5C961.155 456.5 947.5 470.155 947.5 487H948.5ZM918 517.5C934.845 517.5 948.5 503.845 948.5 487H947.5C947.5 503.292 934.292 516.5 918 516.5V517.5ZM0.5 516C0.5 516.828 1.17157 517.5 2 517.5V516.5C1.72386 516.5 1.5 516.276 1.5 516H0.5ZM977.5 59.5C961.484 59.5 948.5 46.5163 948.5 30.5H947.5C947.5 47.0685 960.931 60.5 977.5 60.5V59.5ZM918.5 1.5C934.516 1.5 947.5 14.4837 947.5 30.5H948.5C948.5 13.9315 935.069 0.5 918.5 0.5V1.5ZM1319.5 90C1319.5 73.1553 1305.84 59.5 1289 59.5V60.5C1305.29 60.5 1318.5 73.7076 1318.5 90H1319.5ZM31 0.5C14.1553 0.5 0.5 14.1553 0.5 31H1.5C1.5 14.7076 14.7076 1.5 31 1.5V0.5Z" fill="white"/>
</g>
</svg>
