<svg width="330" height="290" viewBox="0 0 330 290" fill="none" xmlns="http://www.w3.org/2000/svg">
<g filter="url(#filter0_f_1_2794)">
<g filter="url(#filter1_f_1_2794)">
<path d="M158.626 250.393C149.666 238.123 371.625 168.411 421.668 150.246C471.71 132.081 519.541 127.302 528.501 139.572C537.461 151.842 503.287 171.915 373.314 213.549C252.39 247.866 176.458 261.438 158.626 250.393Z" fill="#FFA000"/>
</g>
<path d="M507.992 176.484C502.966 203.379 461.603 231.887 408.69 246.053C355.778 260.218 267.459 264.685 262.89 244.742C258.321 224.8 297.627 227.286 414.938 163.674C490.242 122.841 514.083 143.894 507.992 176.484Z" fill="url(#paint0_linear_1_2794)"/>
<g filter="url(#filter2_f_1_2794)">
<path d="M417.625 226.056C414.182 249.899 381.639 274.252 339.523 285.528C297.406 296.803 259.941 291.44 255.842 273.549C251.743 255.658 289.345 232.759 342.733 212.263C391.897 194.112 421.797 197.164 417.625 226.056Z" fill="url(#paint1_linear_1_2794)"/>
</g>
<ellipse cx="78.9458" cy="35.8651" rx="78.9458" ry="35.8651" transform="matrix(0.96598 -0.258615 0.223326 0.974744 160.218 259.324)" fill="#C0618C"/>
<g filter="url(#filter3_f_1_2794)">
<path d="M334.881 229.242C338.74 246.088 177.287 276.805 140.455 286.665C103.623 296.526 70.6364 290.863 66.7767 274.017C62.917 257.171 103.179 256.96 185.738 220.743C239.96 196.957 324.842 211.75 334.881 229.242Z" fill="url(#paint2_linear_1_2794)"/>
</g>
<g filter="url(#filter4_f_1_2794)">
<path d="M12.738 261.808C15.0388 254.521 147.942 240.939 179.151 236.605C210.359 232.271 233.793 234.666 231.492 241.953C229.192 249.24 203.982 256.183 125.744 264.559C55.1995 270.055 14.9559 269.364 12.738 261.808Z" fill="#FFC203"/>
</g>
<ellipse cx="80.9582" cy="36.4853" rx="80.9582" ry="36.4853" transform="matrix(0.96598 -0.258615 0.223326 0.974744 93.5242 271.62)" fill="#D07885"/>
<ellipse cx="54.4881" cy="24.5991" rx="54.4881" ry="24.5991" transform="matrix(0.96598 -0.258615 0.223326 0.974744 80.7988 270.108)" fill="#FAF7FF"/>
<g filter="url(#filter5_f_1_2794)">
<path d="M134.372 258.661C131.327 280.847 94.6081 305.154 52.3571 312.951C10.1061 320.748 -21.6769 309.084 -18.6323 286.898C-15.5877 264.712 -5.23118 249.263 37.0198 241.465C79.2708 233.668 137.417 236.475 134.372 258.661Z" fill="url(#paint3_linear_1_2794)"/>
</g>
</g>
<defs>
<filter id="filter0_f_1_2794" x="-82.6155" y="63.0683" width="681.575" height="359.211" filterUnits="userSpaceOnUse" color-interpolation-filters="sRGB">
<feFlood flood-opacity="0" result="BackgroundImageFix"/>
<feBlend mode="normal" in="SourceGraphic" in2="BackgroundImageFix" result="shape"/>
<feGaussianBlur stdDeviation="21.3077" result="effect1_foregroundBlur_1_2794"/>
</filter>
<filter id="filter1_f_1_2794" x="82.6012" y="57.0066" width="523.003" height="272.909" filterUnits="userSpaceOnUse" color-interpolation-filters="sRGB">
<feFlood flood-opacity="0" result="BackgroundImageFix"/>
<feBlend mode="normal" in="SourceGraphic" in2="BackgroundImageFix" result="shape"/>
<feGaussianBlur stdDeviation="37.8804" result="effect1_foregroundBlur_1_2794"/>
</filter>
<filter id="filter2_f_1_2794" x="198.716" y="144.129" width="276.116" height="204.121" filterUnits="userSpaceOnUse" color-interpolation-filters="sRGB">
<feFlood flood-opacity="0" result="BackgroundImageFix"/>
<feBlend mode="normal" in="SourceGraphic" in2="BackgroundImageFix" result="shape"/>
<feGaussianBlur stdDeviation="28.4103" result="effect1_foregroundBlur_1_2794"/>
</filter>
<filter id="filter3_f_1_2794" x="-75.5284" y="66.3152" width="552.529" height="367.249" filterUnits="userSpaceOnUse" color-interpolation-filters="sRGB">
<feFlood flood-opacity="0" result="BackgroundImageFix"/>
<feBlend mode="normal" in="SourceGraphic" in2="BackgroundImageFix" result="shape"/>
<feGaussianBlur stdDeviation="71.0258" result="effect1_foregroundBlur_1_2794"/>
</filter>
<filter id="filter4_f_1_2794" x="-9.99022" y="211.718" width="264.367" height="79.1742" filterUnits="userSpaceOnUse" color-interpolation-filters="sRGB">
<feFlood flood-opacity="0" result="BackgroundImageFix"/>
<feBlend mode="normal" in="SourceGraphic" in2="BackgroundImageFix" result="shape"/>
<feGaussianBlur stdDeviation="11.3641" result="effect1_foregroundBlur_1_2794"/>
</filter>
<filter id="filter5_f_1_2794" x="-255.587" y="0.771683" width="626.826" height="551.353" filterUnits="userSpaceOnUse" color-interpolation-filters="sRGB">
<feFlood flood-opacity="0" result="BackgroundImageFix"/>
<feBlend mode="normal" in="SourceGraphic" in2="BackgroundImageFix" result="shape"/>
<feGaussianBlur stdDeviation="118.376" result="effect1_foregroundBlur_1_2794"/>
</filter>
<linearGradient id="paint0_linear_1_2794" x1="461.219" y1="231.913" x2="382.566" y2="142.212" gradientUnits="userSpaceOnUse">
<stop stop-color="#833693"/>
<stop offset="0.994792" stop-color="#F9BB56" stop-opacity="0.5"/>
</linearGradient>
<linearGradient id="paint1_linear_1_2794" x1="366.697" y1="265.632" x2="323.921" y2="210.307" gradientUnits="userSpaceOnUse">
<stop stop-color="#260040"/>
<stop offset="0.244792" stop-color="#903E93"/>
<stop offset="1" stop-color="#FFD009"/>
</linearGradient>
<linearGradient id="paint2_linear_1_2794" x1="131.135" y1="232.398" x2="145.316" y2="285.364" gradientUnits="userSpaceOnUse">
<stop stop-color="#903F93"/>
<stop offset="0.494792" stop-color="#D46B96"/>
<stop offset="1" stop-color="#FDBF64"/>
</linearGradient>
<linearGradient id="paint3_linear_1_2794" x1="175.417" y1="262.142" x2="103.78" y2="184.776" gradientUnits="userSpaceOnUse">
<stop stop-color="#FFD009"/>
<stop offset="0.677083" stop-color="#C68456"/>
<stop offset="1" stop-color="#914093"/>
</linearGradient>
</defs>
</svg>
