<svg width="1366" height="59" viewBox="0 0 1366 59" fill="none" xmlns="http://www.w3.org/2000/svg">
<mask id="path-1-inside-1_105_813" fill="white">
<path fill-rule="evenodd" clip-rule="evenodd" d="M1379 13C1379 5.26801 1372.73 -1 1365 -1H0C-7.73199 -1 -14 5.26801 -14 13V45C-14 52.732 -7.732 59 -1.43051e-05 59H535C542.732 59 549 52.732 549 45V31C549 23.268 555.268 17 563 17H803C810.732 17 817 23.268 817 31V45C817 52.732 823.268 59 831 59H1365C1372.73 59 1379 52.732 1379 45V13Z"/>
</mask>
<path d="M0 0H1365V-2H0V0ZM-13 45V13H-15V45H-13ZM535 58H-1.43051e-05V60H535V58ZM550 45V31H548V45H550ZM563 18H803V16H563V18ZM816 31V45H818V31H816ZM1365 58H831V60H1365V58ZM1378 13V45H1380V13H1378ZM1365 60C1373.28 60 1380 53.2843 1380 45H1378C1378 52.1797 1372.18 58 1365 58V60ZM816 45C816 53.2843 822.716 60 831 60V58C823.82 58 818 52.1797 818 45H816ZM803 18C810.18 18 816 23.8203 816 31H818C818 22.7157 811.284 16 803 16V18ZM550 31C550 23.8203 555.82 18 563 18V16C554.716 16 548 22.7157 548 31H550ZM535 60C543.284 60 550 53.2843 550 45H548C548 52.1797 542.18 58 535 58V60ZM-15 45C-15 53.2843 -8.28429 60 -1.43051e-05 60V58C-7.17971 58 -13 52.1797 -13 45H-15ZM1365 0C1372.18 0 1378 5.8203 1378 13H1380C1380 4.71573 1373.28 -2 1365 -2V0ZM0 -2C-8.28427 -2 -15 4.71573 -15 13H-13C-13 5.8203 -7.1797 0 0 0V-2Z" fill="white" mask="url(#path-1-inside-1_105_813)"/>
</svg>
