<svg width="240" height="32" viewBox="0 0 240 32" fill="none" xmlns="http://www.w3.org/2000/svg">
<path d="M238.643 2.42256C237.732 1.48364 236.57 1.00488 235.152 1.00488H200.161C199.961 1.00488 199.803 1.16757 199.803 1.36279V31.0967C199.803 31.2966 199.961 31.4546 200.161 31.4546H210.196C210.55 31.4593 210.689 31.0037 210.401 30.8085L208.537 29.5303V7.47969C208.537 6.74065 209.137 6.14568 209.871 6.14568H228.886C230.606 6.14568 231.475 6.9777 231.475 8.64637V18.7839C231.475 18.9791 231.633 19.1418 231.833 19.1418H235.152C236.57 19.1418 237.732 18.677 238.643 17.7566C239.544 16.8363 240 15.6696 240 14.2427V5.97371C240 4.55604 239.544 3.37077 238.643 2.42256" fill="white"/>
<path d="M47.7731 25.5513C47.3548 25.0911 47.1456 24.4311 47.1456 23.5665V2.93361L49.0514 1.65538C49.3442 1.46016 49.2048 1 48.8515 1H38.7698C38.5699 1 38.4119 1.16269 38.4119 1.35791V31.1011C38.4119 31.301 38.5746 31.459 38.7698 31.459H70.349C70.5488 31.459 70.7069 31.2963 70.7069 31.1011V26.5971C70.7069 26.3972 70.5442 26.2392 70.349 26.2392H49.8183C48.8701 26.2392 48.1868 26.0114 47.7685 25.5513" fill="white"/>
<path d="M172.589 15.8786C172.589 15.3487 172.881 14.7909 173.467 14.2053L186.059 1.61355C186.287 1.38579 186.124 1 185.803 1H175.926C175.824 1 175.721 1.04648 175.656 1.1255L167.49 10.5704C166.764 11.4071 166.025 11.8254 165.272 11.8254H164.896C164.143 11.8254 163.404 11.4071 162.679 10.5704L156.074 2.93361L157.91 1.65538C158.198 1.45552 158.054 1.00465 157.705 1.00465H144.375C144.054 1.00465 143.891 1.39509 144.119 1.62284C152.156 9.65941 156.353 13.8566 156.706 14.2053C157.292 14.7909 157.58 15.3487 157.58 15.8786C157.58 16.3527 157.287 16.8965 156.706 17.51C149.678 24.854 145.411 29.3023 143.896 30.8594C143.673 31.0871 143.835 31.4683 144.156 31.4683H154.075C154.182 31.4683 154.28 31.4218 154.349 31.3428L162.223 21.9862C162.753 21.3447 163.074 20.9822 163.185 20.8985C163.66 20.5081 164.329 20.3128 165.193 20.3128C165.923 20.3128 166.504 20.4709 166.936 20.787L167.262 21.1077L174.318 29.5347L172.379 30.8083C172.082 31.0035 172.221 31.4683 172.575 31.4683H186.031C186.347 31.4683 186.51 31.0871 186.287 30.8594C180.699 25.1097 176.428 20.6615 173.467 17.5147C172.881 16.9011 172.589 16.3573 172.589 15.8832" fill="white"/>
<path d="M188.727 31.4639H196.656C196.856 31.4639 197.014 31.3058 197.014 31.106V1.36279C197.014 1.16292 196.856 1.00488 196.656 1.00488H188.727C188.527 1.00488 188.369 1.16757 188.369 1.36279V31.106C188.369 31.3058 188.532 31.4639 188.727 31.4639Z" fill="white"/>
<path d="M214.245 16.8313L227.329 31.4635H236.653C236.96 31.4635 237.123 31.1056 236.928 30.8732L224.531 16.2363H214.51C214.198 16.2363 214.036 16.6035 214.245 16.8359" fill="white"/>
<path d="M90.1499 1.20916L83.3172 15.767L72.4499 2.93361L74.2441 1.65073C74.5276 1.44621 74.3835 1 74.0349 1H60.7971C60.4857 1 60.323 1.3672 60.5322 1.5996L73.5097 16.111C73.5794 16.1853 73.677 16.2318 73.7793 16.2318H83.1034L76.1963 30.9524C76.0847 31.1894 76.2567 31.4636 76.5217 31.4636H87.296C87.6492 31.4636 87.7887 31.0081 87.4958 30.8083L85.6087 29.53L98.9116 1.51594C99.0231 1.27889 98.8511 1.00465 98.5862 1.00465H90.4799C90.3405 1.00465 90.215 1.08366 90.1545 1.20916" fill="white"/>
<path d="M130.546 1.66027L132.448 2.93849V24.3616C132.448 25.1983 132.099 25.6166 131.402 25.6166H130.481C130.063 25.6166 129.547 25.1843 128.934 24.3197L117.88 1.2094C117.82 1.0839 117.694 1.00488 117.555 1.00488H101.259C101.059 1.00488 100.901 1.16757 100.901 1.36279V31.106C100.901 31.3058 101.059 31.4639 101.259 31.4639H110.978C111.331 31.4639 111.471 31.0084 111.178 30.8131L109.295 29.5349V8.11183C109.295 7.27517 109.644 6.85684 110.341 6.85684H111.471C111.777 6.85684 112.224 7.28912 112.809 8.15366L123.737 31.264C123.797 31.3895 123.923 31.4685 124.062 31.4685H140.479C140.679 31.4685 140.837 31.3059 140.837 31.1106V1.36743C140.837 1.16757 140.675 1.00954 140.479 1.00954H130.737C130.384 1.00954 130.244 1.46504 130.537 1.66491" fill="white"/>
<path d="M8.19925 24.352V18.9416H33.285C33.4849 18.9416 33.6429 18.7789 33.6429 18.5837V14.1634C33.6429 13.9635 33.4803 13.8055 33.285 13.8055H10.1329C9.06844 13.8055 8.19925 12.9363 8.19925 11.8719V6.23837H35.3674C35.5673 6.23837 35.7253 6.07569 35.7253 5.88047V1.37646C35.7253 1.17659 35.5626 1.01855 35.3674 1.01855H0.357904C0.158035 1.01855 0 1.18124 0 1.37646V26.4994C0 27.9171 0.455514 29.1024 1.35725 30.0506C2.26827 30.9895 3.4303 31.4682 4.84797 31.4682H35.3674C35.5673 31.4682 35.7253 31.3056 35.7253 31.1103V26.6482C35.7253 26.4483 35.5626 26.2903 35.3674 26.2903H10.1329C9.06379 26.2903 8.19925 25.4257 8.19925 24.3567" fill="white"/>
</svg>
