<svg width="659" height="169" viewBox="0 0 659 169" fill="none" xmlns="http://www.w3.org/2000/svg">
<mask id="mask0_1_1718" style="mask-type:alpha" maskUnits="userSpaceOnUse" x="0" y="0" width="659" height="169">
<path d="M0 0H659V169H0V0Z" fill="#D9D9D9"/>
</mask>
<g mask="url(#mask0_1_1718)">
<g filter="url(#filter0_f_1_1718)">
<g filter="url(#filter1_f_1_1718)">
<path d="M309.093 188.697C299.601 175.258 555.694 115.431 613.569 99.3698C671.444 83.3083 726.056 81.1825 735.549 94.6216C745.041 108.061 705.089 127.089 555.082 162.976C415.768 191.72 328.736 201.387 309.093 188.697Z" fill="#010F43"/>
</g>
<path d="M710.179 132.177C702.96 160.141 654.367 187.598 593.455 199.282C532.543 210.967 431.947 210.311 427.873 189.073C423.799 167.836 468.319 172.83 605.17 113.076C693.016 74.7187 718.925 98.2909 710.179 132.177Z" fill="#582E95"/>
<g filter="url(#filter2_f_1_1718)">
<path d="M604.727 178.806C599.479 203.658 561.14 227.284 512.656 236.584C464.172 245.884 421.906 237.978 418.251 218.924C414.596 199.871 458.602 178.081 520.409 159.773C577.286 143.673 611.086 148.691 604.727 178.806Z" fill="#AC76FF"/>
</g>
<ellipse cx="405.333" cy="218.571" rx="89.3898" ry="37.9084" transform="rotate(-10.8586 405.333 218.571)" fill="#9652FF"/>
<g filter="url(#filter3_f_1_1718)">
<path d="M510.536 177.143C513.977 195.083 328.817 217.588 286.416 225.721C244.016 233.855 206.854 225.904 203.413 207.964C199.971 190.024 245.728 192.241 341.559 159.176C404.498 137.459 500.111 158.15 510.536 177.143Z" fill="url(#paint0_linear_1_1718)"/>
</g>
<path d="M142.699 191.859C145.721 184.339 297.485 178.114 333.186 175.449C368.887 172.784 395.378 176.72 392.356 184.24C389.333 191.76 360.302 197.53 270.94 201.594C190.481 203.099 144.795 199.935 142.699 191.859Z" fill="#A568FF"/>
<g filter="url(#filter4_f_1_1718)">
<path d="M281.074 195.918C276.371 219.053 233.289 242.377 184.848 248.013C136.406 253.649 100.948 239.463 105.651 216.329C110.353 193.194 122.986 177.584 171.428 171.947C219.869 166.311 285.776 172.784 281.074 195.918Z" fill="url(#paint1_linear_1_1718)"/>
</g>
</g>
</g>
<defs>
<filter id="filter0_f_1_1718" x="40.3845" y="16.3843" width="764.488" height="340.459" filterUnits="userSpaceOnUse" color-interpolation-filters="sRGB">
<feFlood flood-opacity="0" result="BackgroundImageFix"/>
<feBlend mode="normal" in="SourceGraphic" in2="BackgroundImageFix" result="shape"/>
<feGaussianBlur stdDeviation="21.3077" result="effect1_foregroundBlur_1_1718"/>
</filter>
<filter id="filter1_f_1_1718" x="166.785" y="-56.2684" width="712.133" height="392.497" filterUnits="userSpaceOnUse" color-interpolation-filters="sRGB">
<feFlood flood-opacity="0" result="BackgroundImageFix"/>
<feBlend mode="normal" in="SourceGraphic" in2="BackgroundImageFix" result="shape"/>
<feGaussianBlur stdDeviation="71.0258" result="effect1_foregroundBlur_1_1718"/>
</filter>
<filter id="filter2_f_1_1718" x="361.218" y="93.9557" width="301.093" height="203.348" filterUnits="userSpaceOnUse" color-interpolation-filters="sRGB">
<feFlood flood-opacity="0" result="BackgroundImageFix"/>
<feBlend mode="normal" in="SourceGraphic" in2="BackgroundImageFix" result="shape"/>
<feGaussianBlur stdDeviation="28.4103" result="effect1_foregroundBlur_1_1718"/>
</filter>
<filter id="filter3_f_1_1718" x="61.1804" y="7.83667" width="591.455" height="363.127" filterUnits="userSpaceOnUse" color-interpolation-filters="sRGB">
<feFlood flood-opacity="0" result="BackgroundImageFix"/>
<feBlend mode="normal" in="SourceGraphic" in2="BackgroundImageFix" result="shape"/>
<feGaussianBlur stdDeviation="71.0258" result="effect1_foregroundBlur_1_1718"/>
</filter>
<filter id="filter4_f_1_1718" x="-131.52" y="-66.7189" width="649.585" height="552.719" filterUnits="userSpaceOnUse" color-interpolation-filters="sRGB">
<feFlood flood-opacity="0" result="BackgroundImageFix"/>
<feBlend mode="normal" in="SourceGraphic" in2="BackgroundImageFix" result="shape"/>
<feGaussianBlur stdDeviation="118.376" result="effect1_foregroundBlur_1_1718"/>
</filter>
<linearGradient id="paint0_linear_1_1718" x1="278.868" y1="168.118" x2="289.793" y2="225.073" gradientUnits="userSpaceOnUse">
<stop stop-color="#542A94"/>
<stop offset="0.494792" stop-color="#6A00FF"/>
<stop offset="1" stop-color="#57DAB3"/>
</linearGradient>
<linearGradient id="paint1_linear_1_1718" x1="327.513" y1="202.063" x2="257.536" y2="110.969" gradientUnits="userSpaceOnUse">
<stop stop-color="#A026FF"/>
<stop offset="0.677083" stop-color="#A93AFF"/>
<stop offset="1" stop-color="#4D4DFF"/>
</linearGradient>
</defs>
</svg>
