<svg width="29" height="28" viewBox="0 0 29 28" fill="none" xmlns="http://www.w3.org/2000/svg">
<path d="M23.6167 0.516511C22.5856 0.728663 21.8738 1.10245 21.1305 1.82478C20.6804 2.25919 20.5652 2.40568 20.3559 2.81483C20.0523 3.41087 19.979 3.68869 19.8743 4.70904C19.6597 6.78005 19.2829 8.4116 18.8065 9.32588C18.6181 9.67946 18.6024 9.89667 18.749 10.0381C18.8955 10.1795 19.1206 10.1644 19.4713 9.99264C20.4239 9.53298 22.1616 9.15918 24.3234 8.95208C24.784 8.90662 25.3231 8.8258 25.5272 8.77024C27.0661 8.33078 28.2699 6.99725 28.6154 5.3455C28.7358 4.78481 28.6991 3.86043 28.5369 3.31995C28.3223 2.59257 27.8093 1.82983 27.2283 1.36512C26.8305 1.04689 26.0768 0.678151 25.6057 0.567024C25.1242 0.450845 24.0459 0.425589 23.6167 0.516511Z" fill="white"/>
<path d="M3.83124 1.53705C3.42821 1.56736 3.05135 1.67343 2.61168 1.89064C2.26099 2.06743 2.08303 2.19371 1.84226 2.45132C0.952452 3.38581 0.764022 4.69408 1.35548 5.84576C1.56485 6.26501 1.28744 5.97204 5.42766 10.0635C9.78772 14.3672 9.44749 14.0136 9.68827 14.4884C10.5676 16.2261 9.71967 18.5799 7.87725 19.4993C7.01361 19.9286 6.84612 19.9589 5.16595 19.964C3.50672 19.964 3.41774 19.9791 2.62738 20.3731C1.63813 20.8631 0.900109 21.7774 0.6384 22.828C0.444736 23.616 0.533717 24.5758 0.868703 25.3082C1.31884 26.2982 2.31333 27.1115 3.44391 27.4247C3.97256 27.5712 4.93041 27.5762 5.45383 27.4398C6.7519 27.1014 7.79873 26.172 8.19653 24.995C8.4216 24.3485 8.45824 23.9494 8.38496 23.1412C8.28028 22.0501 8.40066 21.3581 8.82986 20.5146C9.81912 18.5749 12.6456 17.7465 14.399 18.8881C14.5403 18.979 16.0321 20.3529 17.7122 21.934C22.7004 26.6417 22.5486 26.5104 22.9673 26.7175C24.1764 27.3287 25.6368 27.1317 26.5789 26.2275C27.5891 25.2577 27.7723 23.813 27.0343 22.6664C26.9244 22.4997 26.3329 21.8885 25.5268 21.1258C20.7638 16.5999 19.696 15.5947 19.6384 15.5947C19.4971 15.5947 19.3767 15.7058 19.3767 15.8422C19.3767 15.9179 19.6489 16.7211 19.9839 17.6202C20.5073 19.0245 20.5963 19.3124 20.6172 19.6508C20.6434 20.0094 20.6381 20.0549 20.5073 20.2418C19.942 21.0652 18.6544 20.6105 17.037 19.0245C16.121 18.1203 15.718 17.6051 14.9015 16.2816C13.9593 14.7511 13.7814 14.5794 12.1431 13.6348C10.934 12.9377 10.018 12.276 9.30617 11.5789C8.07615 10.3717 7.50562 9.38668 7.69405 8.78053C7.83537 8.32592 8.28551 8.07336 8.82463 8.14407C8.97119 8.16428 9.58882 8.35118 10.1907 8.55828C12.656 9.40689 12.7293 9.42709 12.8445 9.2604C12.9701 9.08361 13.0591 9.17958 7.12876 3.37065C6.04529 2.30989 5.73124 2.03207 5.45383 1.89064C4.93565 1.61787 4.38606 1.50169 3.83124 1.53705Z" fill="white"/>
<path d="M15.677 10.7664C15.1379 10.9331 14.7401 11.2816 14.4993 11.7868C14.4051 11.9838 14.3789 12.1252 14.3789 12.4636C14.3789 12.8475 14.3946 12.9334 14.5516 13.2314C14.7505 13.6204 15.0332 13.8881 15.4467 14.075C15.7031 14.1911 15.8078 14.2063 16.2632 14.2063C16.7604 14.2063 16.8023 14.1962 17.1164 14.0346C17.5089 13.8275 17.7706 13.5597 17.9591 13.1758C18.0742 12.9384 18.0952 12.8223 18.0952 12.4636C18.0952 12.105 18.0742 11.9888 17.9591 11.7514C17.7654 11.3523 17.488 11.0796 17.0902 10.8876C16.8076 10.7563 16.6767 10.726 16.326 10.7108C16.0591 10.7007 15.8131 10.7209 15.677 10.7664Z" fill="white"/>
</svg>
