<svg width="20" height="20" viewBox="0 0 20 20" fill="none" xmlns="http://www.w3.org/2000/svg">
<path fill-rule="evenodd" clip-rule="evenodd" d="M9.93806 0.496927C4.72387 0.496927 0.496928 4.72387 0.496928 9.93806C0.496928 12.4455 1.47438 14.7246 3.06904 16.4151L16.4151 3.06904C14.7246 1.47438 12.4455 0.496927 9.93806 0.496927ZM3.41934 16.7675L16.7675 3.41934C18.3856 5.11402 19.3792 7.41 19.3792 9.93806C19.3792 15.1523 15.1523 19.3792 9.93806 19.3792C7.41 19.3792 5.11402 18.3856 3.41934 16.7675ZM9.93806 2.43611e-05C4.44944 2.41212e-05 2.54699e-05 4.44943 2.52299e-05 9.93806C2.499e-05 15.4267 4.44944 19.8761 9.93806 19.8761C15.4267 19.8761 19.8761 15.4267 19.8761 9.93806C19.8761 4.44944 15.4267 2.4601e-05 9.93806 2.43611e-05Z" fill="white"/>
</svg>
